<svg width="24" height="24" viewBox="0 0 24 24" fill="none" xmlns="http://www.w3.org/2000/svg">
<path d="M 18.0261 6.4745 C 16.8948 5.9554 15.6816 5.5729 14.4132 5.3539 C 14.3901 5.3496 14.367 5.3602 14.3551 5.3813 C 14.1991 5.6588 14.0262 6.0208 13.9052 6.3054 C 12.5409 6.1012 11.1836 6.1012 9.8473 6.3054 C 9.7263 6.0145 9.5472 5.6588 9.3904 5.3813 C 9.3785 5.3609 9.3555 5.3503 9.3323 5.3539 C 8.0646 5.5722 6.8514 5.9546 5.7194 6.4745 C 5.7096 6.4787 5.7012 6.4857 5.6956 6.4949 C 3.3945 9.9327 2.7641 13.2861 3.0734 16.5978 C 3.0748 16.6141 3.0838 16.6296 3.0964 16.6394 C 4.6147 17.7544 6.0853 18.4312 7.5287 18.8799 C 7.5518 18.8869 7.5762 18.8785 7.591 18.8595 C 7.9324 18.3932 8.2367 17.9016 8.4977 17.3846 C 8.5131 17.3543 8.4984 17.3184 8.4669 17.3064 C 7.9841 17.1233 7.5245 16.9 7.0823 16.6464 C 7.0473 16.626 7.0445 16.576 7.0767 16.552 C 7.1697 16.4823 7.2628 16.4098 7.3517 16.3365 C 7.3678 16.3232 7.3902 16.3203 7.409 16.3288 C 10.314 17.655 13.4588 17.655 16.3295 16.3288 C 16.3484 16.3196 16.3708 16.3224 16.3875 16.3358 C 16.4764 16.4091 16.5695 16.4823 16.6632 16.552 C 16.6954 16.576 16.6933 16.626 16.6583 16.6464 C 16.2162 16.9049 15.7565 17.1233 15.273 17.3057 C 15.2416 17.3177 15.2276 17.3543 15.243 17.3846 C 15.5095 17.9009 15.8139 18.3925 16.149 18.8588 C 16.163 18.8785 16.1882 18.8869 16.2112 18.8799 C 17.6616 18.4312 19.1322 17.7544 20.6505 16.6394 C 20.6638 16.6296 20.6722 16.6148 20.6736 16.5985 C 21.0437 12.7698 20.0537 9.4439 18.0492 6.4956 C 18.0443 6.4857 18.0359 6.4787 18.0261 6.4745 Z M 8.9315 14.5813 C 8.0569 14.5813 7.3363 13.7784 7.3363 12.7923 C 7.3363 11.8063 8.0429 11.0033 8.9315 11.0033 C 9.827 11.0033 10.5407 11.8133 10.5267 12.7923 C 10.5267 13.7784 9.82 14.5813 8.9315 14.5813 Z M 14.8294 14.5813 C 13.9549 14.5813 13.2343 13.7784 13.2343 12.7923 C 13.2343 11.8063 13.9409 11.0033 14.8294 11.0033 C 15.725 11.0033 16.4386 11.8133 16.4246 12.7923 C 16.4246 13.7784 15.725 14.5813 14.8294 14.5813 Z" fill="white"/>
</svg>
