<?xml version="1.0"?>
<svg width="300" height="300" author="SkyVerseMc" xmlns="http://www.w3.org/2000/svg" xmlns:svg="http://www.w3.org/2000/svg" clip-rule="evenodd" fill-rule="evenodd" version="1.1">
 <g>
  <g>
   <path d="m138.5,0.5l74.5,47.5l-74.5,47.5l0,-25c-39.78,9.28 -62.45,33.95 -68.5,74c-1.69,25.61 6.48,47.44 24.5,65.5l-32.5,29.5c-33.31,-34.92 -43.98,-75.92 -32,-123c17.88,-52.04 54.04,-82.04 108.5,-90l0,-26z" fill="#fefffe" id="svg_2"/>
  </g>
  <g transform="rotate(180 180 180) translate(60 60)">
	<path d="m138.5,0.5l74.5,47.5l-74.5,47.5l0,-25c-39.78,9.28 -62.45,33.95 -68.5,74c-1.69,25.61 6.48,47.44 24.5,65.5l-32.5,29.5c-33.31,-34.92 -43.98,-75.92 -32,-123c17.88,-52.04 54.04,-82.04 108.5,-90l0,-26z" fill="#fefffe"/>
  </g>
 </g>
</svg>